<svg width="46" height="46" viewBox="0 0 46 46" fill="none" xmlns="http://www.w3.org/2000/svg">
<path d="M10.6431 1V9.57143" stroke="#252525" stroke-linecap="round" stroke-linejoin="round"/>
<path d="M21.3569 1V9.57143" stroke="#252525" stroke-linecap="round" stroke-linejoin="round"/>
<path d="M34.2144 1V9.57143" stroke="#252525" stroke-linecap="round" stroke-linejoin="round"/>
<path d="M21.3571 43.8572H4C2.34315 43.8572 1 42.5141 1 40.8572V7.21436C1 5.5575 2.34315 4.21436 4 4.21436H40.8571C42.514 4.21436 43.8571 5.5575 43.8571 7.21436V21.3572" stroke="#252525" stroke-linecap="round" stroke-linejoin="round"/>
<ellipse cx="9.57157" cy="18.1429" rx="2.14286" ry="2.14286" fill="#252525"/>
<ellipse cx="9.57157" cy="26.7144" rx="2.14286" ry="2.14286" fill="#252525"/>
<ellipse cx="9.57157" cy="35.2857" rx="2.14286" ry="2.14286" fill="#252525"/>
<circle cx="18.1429" cy="18.1429" r="2.14286" fill="#252525"/>
<ellipse cx="18.1429" cy="26.7144" rx="2.14286" ry="2.14286" fill="#252525"/>
<ellipse cx="18.1429" cy="35.2857" rx="2.14286" ry="2.14286" fill="#252525"/>
<ellipse cx="26.7141" cy="18.1429" rx="2.14286" ry="2.14286" fill="#252525"/>
<ellipse cx="35.2859" cy="18.1429" rx="2.14286" ry="2.14286" fill="#252525"/>
<circle cx="34.2144" cy="34.2142" r="11.2857" stroke="#252525"/>
<path d="M33.1431 29.9285V35.2856H37.4288" stroke="#252525" stroke-linecap="round" stroke-linejoin="round"/>
</svg>
