<svg width="48" height="48" viewBox="0 0 48 48" fill="none" xmlns="http://www.w3.org/2000/svg">
<path d="M33.5 14C33.5 19.2489 29.2489 23.5 24 23.5C18.7511 23.5 14.5 19.2489 14.5 14C14.5 8.75114 18.7511 4.5 24 4.5C29.2489 4.5 33.5 8.75114 33.5 14ZM4.5 39C4.5 37.5211 5.23685 36.1888 6.52544 34.9995C7.81743 33.807 9.63051 32.7925 11.6828 31.9704C15.7882 30.3258 20.725 29.5 24 29.5C27.275 29.5 32.2118 30.3258 36.3172 31.9704C38.3695 32.7925 40.1826 33.807 41.4746 34.9995C42.7631 36.1888 43.5 37.5211 43.5 39V41.5C43.5 42.5989 42.5989 43.5 41.5 43.5H6.5C5.40114 43.5 4.5 42.5989 4.5 41.5V39Z" stroke="black"/>
</svg>
