<svg width="48" height="48" viewBox="0 0 48 48" fill="none" xmlns="http://www.w3.org/2000/svg">
<g clip-path="url(#clip0)">
<path d="M25.1872 22.814C24.8206 22.4474 24.2272 22.4474 23.8606 22.814C23.495 23.1796 23.495 23.7731 23.8606 24.1396C24.2272 24.5053 24.8206 24.5053 25.1872 24.1396C25.5528 23.7731 25.5528 23.1796 25.1872 22.814Z" fill="black"/>
<path d="M37.1188 10.8814C35.2869 9.04966 32.3214 9.04957 30.4895 10.8814C28.6624 12.7085 28.6623 15.6823 30.4897 17.5109C32.3175 19.3375 35.2912 19.3382 37.1188 17.5107C38.9505 15.679 38.9508 12.7134 37.1188 10.8814ZM35.793 16.1848C34.6968 17.2811 32.9123 17.2811 31.8155 16.185C30.7191 15.0879 30.719 13.3035 31.8154 12.2072C32.9144 11.1082 34.6938 11.108 35.793 12.2072C36.892 13.3062 36.8922 15.0856 35.793 16.1848Z" fill="black"/>
<path d="M47.725 0.274602C47.5409 0.0905715 47.2896 -0.00917829 47.0285 0.000665437C46.8165 0.00825917 41.7695 0.211134 35.7699 2.33166C30.9625 4.0291 26.9553 6.45937 23.8598 9.55499C23.1661 10.2486 22.4911 10.9842 21.8453 11.7484C18.7845 9.94668 16.3319 10.5116 14.7813 11.3414C11.2112 13.252 9.00146 18.4398 9.00146 22.1504C9.00175 22.5295 9.23021 22.8714 9.58046 23.0164C9.69643 23.0645 9.81831 23.0879 9.93906 23.0879C10.1831 23.0879 10.4228 22.9925 10.6021 22.8133C12.4849 20.9305 14.8072 21.0483 15.5658 21.148L15.8941 21.4763C15.248 23.0138 14.7275 24.5427 14.3458 26.0296C14.208 26.5678 14.2545 27.1372 14.4593 27.6581C13.5567 28.074 12.6858 28.6848 11.9276 29.4431C9.51437 31.8564 9.02434 37.7377 9.00465 37.9869C8.98309 38.2603 9.08228 38.5296 9.27625 38.7236C9.45278 38.9 9.69156 38.9982 9.93906 38.9982C9.96362 38.9982 9.98828 38.9972 10.0129 38.9953C10.2621 38.9757 16.1436 38.4856 18.5568 36.0724C19.3148 35.3144 19.9255 34.4437 20.3414 33.5413C20.8929 33.7581 21.4604 33.7848 21.9708 33.654C23.4571 33.2724 24.9858 32.7521 26.5235 32.1059L26.8518 32.4342C26.9515 33.1929 27.0692 35.5152 25.1865 37.3978C24.9185 37.6659 24.8382 38.0691 24.9834 38.4193C25.1284 38.7697 25.4702 38.9981 25.8494 38.9981C29.5601 38.9981 34.7477 36.7883 36.6583 33.2182C37.4881 31.6679 38.053 29.2152 36.2514 26.1543C37.0151 25.5088 37.7508 24.8338 38.4447 24.1398C41.5403 21.0442 43.9705 17.0371 45.668 12.23C47.7886 6.23015 47.9914 1.18304 47.999 0.971164C48.0083 0.711008 47.909 0.458727 47.725 0.274602ZM11.0975 20.1339C11.6799 17.3155 13.3714 14.2228 15.6664 12.9945C17.2001 12.1738 18.8764 12.2542 20.6588 13.2299C19.1403 15.2269 17.8202 17.3785 16.7199 19.6505C16.7059 19.6419 16.5372 19.4298 16.2237 19.3591C16.0948 19.3299 13.6142 18.7964 11.0975 20.1339ZM17.231 34.7465C15.942 36.0356 12.9181 36.7154 11.0068 36.993C11.2845 35.0817 11.9644 32.0579 13.2534 30.7689C13.9753 30.047 14.8123 29.4997 15.6536 29.1915L18.8084 32.3463C18.5002 33.1876 17.953 34.0246 17.231 34.7465ZM21.5051 31.8377C21.2338 31.9072 20.9195 31.8052 20.6859 31.572C19.473 30.3591 18.9986 29.8846 18.8497 29.7359C18.5767 29.4629 17.9072 28.7934 16.4285 27.3146C16.1947 27.0803 16.0927 26.7661 16.162 26.4953C16.4623 25.3259 16.855 24.1261 17.3325 22.9147L25.0852 30.6674C23.8737 31.145 22.674 31.5376 21.5051 31.8377ZM35.0054 32.3335C33.7771 34.6284 30.6845 36.32 27.8662 36.9023C28.7648 35.2113 28.9629 33.0587 28.6346 31.7535C28.5583 31.4503 28.3605 31.2978 28.3495 31.2799C30.6213 30.1796 32.7728 28.8595 34.77 27.341C35.7457 29.1236 35.826 30.8001 35.0054 32.3335ZM37.1191 22.814C36.2743 23.6587 35.3647 24.4748 34.4154 25.2395C32.1333 27.077 29.6215 28.6335 26.9418 29.8725L18.1274 21.0583C19.3664 18.3783 20.9229 15.8666 22.7602 13.5848C23.5256 12.6349 24.3416 11.7251 25.186 10.8808C27.9633 8.10337 31.5477 5.89294 35.8426 4.30181L43.6981 12.1573C42.1072 16.4521 39.8967 20.0365 37.1191 22.814ZM44.3726 10.18L37.8199 3.62728C41.39 2.51841 44.4958 2.10319 46.0461 1.95394C45.8967 3.50447 45.4814 6.61031 44.3726 10.18Z" fill="black"/>
<path d="M22.5348 38.7232C22.1685 38.3571 21.5749 38.3573 21.2089 38.7234L18.5576 41.3756C18.1916 41.7418 18.1917 42.3354 18.5578 42.7014C18.9241 43.0674 19.5177 43.0674 19.8837 42.7012L22.535 40.049C22.901 39.6828 22.9009 39.0892 22.5348 38.7232Z" fill="black"/>
<path d="M9.27664 25.4653C8.91064 25.0992 8.3171 25.0992 7.95082 25.4651L5.29864 28.1164C4.93245 28.4824 4.93236 29.076 5.29836 29.4422C5.66426 29.8082 6.25779 29.8086 6.62417 29.4424L9.27635 26.7911C9.64254 26.4251 9.64264 25.8315 9.27664 25.4653Z" fill="black"/>
<path d="M15.9062 40.05C15.5402 39.6839 14.9465 39.6839 14.5803 40.0499L8.22973 46.3996C7.86354 46.7657 7.86354 47.3593 8.22964 47.7254C8.59554 48.0915 9.18926 48.0917 9.55545 47.7255L15.9061 41.3758C16.2722 41.0097 16.2722 40.4161 15.9062 40.05Z" fill="black"/>
<path d="M8.40615 40.05C8.04015 39.6839 7.44644 39.6839 7.08034 40.0499L0.72973 46.3996C0.363543 46.7657 0.363543 47.3593 0.729636 47.7254C1.09554 48.0915 1.68926 48.0917 2.05545 47.7255L8.40606 41.3758C8.77225 41.0097 8.77225 40.4161 8.40615 40.05Z" fill="black"/>
<path d="M7.95004 32.0941C7.58404 31.7281 6.99033 31.7281 6.62423 32.0942L0.274558 38.4447C-0.091535 38.8109 -0.091535 39.4045 0.274652 39.7706C0.640745 40.1367 1.23437 40.1367 1.60046 39.7706L7.95014 33.42C8.31623 33.0538 8.31623 32.4603 7.95004 32.0941Z" fill="black"/>
<path d="M29.1639 18.8361C28.7977 18.47 28.2042 18.47 27.838 18.8361L26.5124 20.1617C26.1463 20.5278 26.1463 21.1214 26.5124 21.4876C26.8785 21.8537 27.4721 21.8537 27.8383 21.4876L29.1639 20.162C29.53 19.7959 29.53 19.2023 29.1639 18.8361Z" fill="black"/>
</g>
<defs>
<clipPath id="clip0">
<path d="M0 0H48V48H0V0Z" fill="white"/>
</clipPath>
</defs>
</svg>
