<svg width="24" height="24" viewBox="0 0 24 24" fill="none" xmlns="http://www.w3.org/2000/svg">
<path d="M9.54366 15.8056C9.34018 16.0091 9.34018 16.3399 9.54366 16.5433C9.64594 16.6445 9.77947 16.6957 9.91305 16.6957C10.0466 16.6957 10.1802 16.6446 10.2814 16.5433L14.4553 12.3694C14.5033 12.3215 14.5419 12.263 14.568 12.1994C14.5826 12.1628 14.5847 12.1253 14.5909 12.0867C14.5962 12.0575 14.6087 12.0303 14.6087 12C14.6087 11.9604 14.5941 11.9249 14.5858 11.8884C14.5795 11.8602 14.5795 11.8299 14.568 11.8028C14.5409 11.7371 14.5012 11.6786 14.4522 11.6285L10.2814 7.45778C10.0779 7.25431 9.74714 7.25431 9.54366 7.45778C9.34018 7.66126 9.34018 7.99206 9.54366 8.19554L12.8275 11.4783H0.521755C0.233755 11.4783 0 11.712 0 12C0 12.288 0.233755 12.5218 0.521755 12.5218H12.8275L9.54366 15.8056Z" fill="black"/>
<path d="M21.3911 0H9.91293C8.47503 0 7.30425 1.17078 7.30425 2.60868V7.82608C7.30425 8.11408 7.538 8.34784 7.826 8.34784C8.114 8.34784 8.34776 8.11408 8.34776 7.82608V2.60868C8.34776 1.74571 9.05 1.04346 9.91298 1.04346H21.3912C22.2542 1.04346 22.9565 1.74571 22.9565 2.60868V21.3913C22.9565 22.2542 22.2542 22.9565 21.3912 22.9565H9.91293C9.04995 22.9565 8.34771 22.2542 8.34771 21.3913V16.1739C8.34771 15.8859 8.11395 15.6522 7.82595 15.6522C7.53795 15.6522 7.3042 15.8859 7.3042 16.1739V21.3913C7.3042 22.8292 8.47498 24 9.91288 24H21.3911C22.829 24 23.9998 22.8292 23.9998 21.3913V2.60873C23.9999 1.17078 22.8291 0 21.3911 0Z" fill="black"/>
</svg>
