<svg width="48" height="48" viewBox="0 0 48 48" fill="none" xmlns="http://www.w3.org/2000/svg">
<path d="M18.1012 40.8892L17.9547 40.7428H17.7476H8.58253C6.33828 40.7428 4.5 38.9045 4.5 36.6603V4.58253C4.5 2.33665 6.317 0.5 8.58253 0.5H40.6603C42.9045 0.5 44.7428 2.33828 44.7428 4.58253V36.6603C44.7428 38.9045 42.9045 40.7428 40.6603 40.7428H31.4952H31.2887L31.1424 40.8885L25.8725 46.1355L25.8717 46.1362C25.1734 46.8346 24.0465 46.8346 23.3482 46.1362L18.1012 40.8892ZM38.369 32.5777H38.869V32.0777V30.0156C38.869 28.6882 38.202 27.5489 37.209 26.6093C36.2184 25.6721 34.8699 24.899 33.4073 24.2847C30.4839 23.0569 26.9813 22.4127 24.6214 22.4127C22.2615 22.4127 18.7589 23.0569 15.8355 24.2847C14.3729 24.899 13.0244 25.6721 12.0338 26.6093C11.0408 27.5489 10.3738 28.6882 10.3738 30.0156V32.0777V32.5777H10.8738H38.369ZM31.3078 13.7476C31.3078 10.0575 28.3115 7.06118 24.6214 7.06118C20.9313 7.06118 17.935 10.0575 17.935 13.7476C17.935 17.4377 20.9313 20.434 24.6214 20.434C28.3115 20.434 31.3078 17.4377 31.3078 13.7476Z" stroke="black"/>
</svg>
