<svg width="48" height="48" viewBox="0 0 48 48" fill="none" xmlns="http://www.w3.org/2000/svg">
<g clip-path="url(#clip0)">
<path d="M32.2352 16.5618C32.9764 16.8707 33.7843 17.0449 34.6349 17.0449C38.0995 17.0449 40.9076 14.2368 40.9076 10.7728C40.9076 7.30811 38.0996 4.50004 34.6349 4.5L32.2352 16.5618ZM32.2352 16.5618C32.0726 15.3769 31.6746 14.2669 31.0909 13.2796C30.412 12.1311 29.4819 11.1485 28.3778 10.4053C28.5693 7.11274 31.2956 4.50056 34.6349 4.5L32.2352 16.5618ZM16.727 23.5992C12.6642 25.1464 9.76861 29.0799 9.76747 33.6814V33.6815V35.2705C7.09437 35.074 4.04631 34.5517 0.651877 33.4915L16.727 23.5992ZM16.727 23.5992C15.5204 22.2121 14.7395 20.4481 14.5803 18.511C14.5261 18.5089 14.4723 18.5077 14.418 18.5077H8.67168C4.16619 18.5077 0.5 22.1739 0.5 26.6788V33.4438L0.651032 33.4912L16.727 23.5992ZM45.4547 33.4917C45.2781 33.5797 42.2979 35.0475 37.0903 35.3249V33.6815C37.0903 29.0799 34.1941 25.1464 30.1318 23.5992C31.3394 22.2113 32.1217 20.4476 32.2798 18.5077H37.5089C42.0138 18.5077 45.68 22.1739 45.68 26.6788V33.3775L45.4561 33.4911C45.4556 33.4913 45.4552 33.4915 45.4547 33.4917ZM34.4731 33.6704V33.6706V40.3681L34.2462 40.4832L34.2447 40.484C34.0711 40.5727 30.4549 42.3621 24.1772 42.3621C20.9636 42.3621 17.0495 41.8934 12.5356 40.4836L12.3846 40.4361V33.6706C12.3846 29.1656 16.0508 25.4989 20.5563 25.4989H26.3032C30.8087 25.4989 34.4748 29.1656 34.4731 33.6704ZM5.27412 10.774V10.7739C5.27412 7.30921 8.08166 4.50115 11.5469 4.50115C15.0098 4.50115 17.8185 7.30921 17.8185 10.7739C17.8185 10.8182 17.8169 10.8588 17.8145 10.9016C16.2123 12.2135 15.0766 14.071 14.6934 16.1917C13.767 16.7323 12.6943 17.0449 11.5469 17.0449C8.08148 17.0449 5.27359 14.2373 5.27412 10.774ZM29.7031 17.7645C29.7031 21.2287 26.8949 24.0378 23.4303 24.0378C19.9667 24.0378 17.1564 21.2291 17.1564 17.7645C17.1564 14.3011 19.9661 11.4923 23.4303 11.4923C26.8944 11.4923 29.7031 14.301 29.7031 17.7645Z" stroke="#252525"/>
</g>
<defs>
<clipPath id="clip0">
<path d="M0 0H48V48H0V0Z" fill="white"/>
</clipPath>
</defs>
</svg>
