<svg width="92" height="91" viewBox="0 0 92 91" fill="none" xmlns="http://www.w3.org/2000/svg">
<path fill-rule="evenodd" clip-rule="evenodd" d="M14.627 0C6.89497 0 0.626953 6.26802 0.626953 14V90.4712H77.1298C84.8618 90.4712 91.1298 84.2032 91.1298 76.4712V0H14.627ZM40.9681 67.8267L45.1237 71.623L49.2793 67.8555L49.3924 67.7523C64.0885 54.3504 73.7829 45.5098 73.7829 34.6663C73.7829 25.8081 66.8474 18.8482 58.0203 18.8482C53.0336 18.8482 48.2475 22.6464 45.1237 26.3277C41.9998 22.6464 37.2137 18.8482 32.227 18.8482C23.4 18.8482 16.4645 25.8081 16.4645 34.6663C16.4645 45.5287 26.1926 54.3812 40.9318 67.7936L40.9681 67.8267Z" fill="url(#paint0_linear)"/>
<defs>
<linearGradient id="paint0_linear" x1="0.759526" y1="45.551" x2="91.7099" y2="45.551" gradientUnits="userSpaceOnUse">
<stop stop-color="#F84646"/>
<stop offset="1" stop-color="#FD7A42"/>
</linearGradient>
</defs>
</svg>
