<svg width="24" height="24" viewBox="0 0 24 24" fill="none" xmlns="http://www.w3.org/2000/svg">
<path d="M16.5 7C16.5 9.48636 14.4864 11.5 12 11.5C9.51364 11.5 7.5 9.48636 7.5 7C7.5 4.51364 9.51364 2.5 12 2.5C14.4864 2.5 16.5 4.51364 16.5 7ZM2.5 19.5C2.5 18.8524 2.82044 18.2481 3.43228 17.6834C4.04751 17.1156 4.92348 16.6222 5.93437 16.2173C7.95696 15.407 10.3938 15 12 15C13.6062 15 16.043 15.407 18.0656 16.2173C19.0765 16.6222 19.9525 17.1156 20.5677 17.6834C21.1796 18.2481 21.5 18.8524 21.5 19.5V20.75C21.5 21.1614 21.1614 21.5 20.75 21.5H3.25C2.83864 21.5 2.5 21.1614 2.5 20.75V19.5Z" stroke="black"/>
</svg>
