<svg width="18" height="18" viewBox="0 0 18 18" fill="none" xmlns="http://www.w3.org/2000/svg">
<path d="M4.64689 6.76311C4.03451 7.37549 3.87467 8.32021 4.34074 9.05015C5.52089 10.8984 7.09769 12.4712 8.94744 13.6548C9.67867 14.1227 10.6261 13.9639 11.2399 13.3501L12.41 12.18C12.68 11.91 13.08 11.82 13.43 11.94C14.55 12.31 15.76 12.51 17 12.51C17.55 12.51 18 12.96 18 13.51V17C18 17.55 17.55 18 17 18C7.61 18 0 10.39 0 1C0 0.45 0.45 0 1 0H4.5C5.05 0 5.5 0.45 5.5 1C5.5 2.25 5.7 3.45 6.07 4.57C6.18 4.92 6.1 5.31 5.82 5.59L4.64689 6.76311Z" fill="url(#paint0_linear)"/>
<defs>
<linearGradient id="paint0_linear" x1="0" y1="9" x2="18" y2="9" gradientUnits="userSpaceOnUse">
<stop stop-color="#F84646"/>
<stop offset="1" stop-color="#FD7A42"/>
</linearGradient>
</defs>
</svg>
