<svg width="8" height="8" viewBox="0 0 8 8" fill="none" xmlns="http://www.w3.org/2000/svg">
<path d="M7.70839 4.00295C7.70839 3.77314 7.52277 3.58752 7.29296 3.58752L4.41445 3.58458L4.41445 0.703116C4.41445 0.473306 4.22883 0.287691 3.99902 0.287691C3.76921 0.287691 3.5836 0.473306 3.5836 0.703116L3.5836 3.58458L0.702138 3.58458C0.472328 3.58458 0.286713 3.77019 0.286713 4C0.286713 4.22981 0.472329 4.41543 0.702138 4.41543L3.5836 4.41543L3.5836 7.29689C3.5836 7.5267 3.76921 7.71231 3.99902 7.71231C4.22883 7.71231 4.41445 7.5267 4.41445 7.29689L4.41445 4.41543L7.29591 4.41543C7.51983 4.41543 7.70839 4.22686 7.70839 4.00295Z" fill="white"/>
</svg>
