<svg width="70" height="70" viewBox="0 0 70 70" fill="none" xmlns="http://www.w3.org/2000/svg">
<path d="M51.2922 31.7415C52.6765 31.7415 53.7987 30.6193 53.7987 29.235C53.7987 27.8507 52.6765 26.7285 51.2922 26.7285C49.9078 26.7285 48.7856 27.8507 48.7856 29.235C48.7856 30.6193 49.9078 31.7415 51.2922 31.7415Z" fill="#252525"/>
<path d="M57.0571 7.92977H53.7987V5.42326C53.7987 4.03891 52.6765 2.91675 51.2922 2.91675C49.9078 2.91675 48.7856 4.03891 48.7856 5.42326V7.92977H37.381V5.42326C37.381 4.03891 36.2589 2.91675 34.8745 2.91675C33.4902 2.91675 32.368 4.03891 32.368 5.42326V7.92977H21.0887V5.42326C21.0887 4.03891 19.9665 2.91675 18.5822 2.91675C17.1978 2.91675 16.0757 4.03891 16.0757 5.42326V7.92977H12.9425C7.41419 7.92977 2.9165 12.4275 2.9165 17.9558V57.0574C2.9165 62.5857 7.41419 67.0834 12.9425 67.0834H32.1173C33.5017 67.0834 34.6239 65.9612 34.6239 64.5769C34.6239 63.1926 33.5017 62.0704 32.1173 62.0704H12.9425C10.1784 62.0704 7.92952 59.8215 7.92952 57.0574V17.9558C7.92952 15.1916 10.1784 12.9428 12.9425 12.9428H16.0757V15.4493C16.0757 16.8336 17.1978 17.9558 18.5822 17.9558C19.9665 17.9558 21.0887 16.8336 21.0887 15.4493V12.9428H32.368V15.4493C32.368 16.8336 33.4902 17.9558 34.8745 17.9558C36.2589 17.9558 37.381 16.8336 37.381 15.4493V12.9428H48.7856V15.4493C48.7856 16.8336 49.9078 17.9558 51.2922 17.9558C52.6765 17.9558 53.7987 16.8336 53.7987 15.4493V12.9428H57.0571C59.8213 12.9428 62.0701 15.1916 62.0701 17.9558V32.2429C62.0701 33.6273 63.1923 34.7494 64.5767 34.7494C65.961 34.7494 67.0832 33.6273 67.0832 32.2429V17.9558C67.0832 12.4275 62.5855 7.92977 57.0571 7.92977Z" fill="#252525"/>
<path d="M51.9188 36.7546C43.5571 36.7546 36.7544 43.5573 36.7544 51.919C36.7544 60.2807 43.5571 67.0834 51.9188 67.0834C60.2805 67.0834 67.0832 60.2807 67.0832 51.919C67.0832 43.5573 60.2805 36.7546 51.9188 36.7546ZM51.9188 62.0704C46.3214 62.0704 41.7674 57.5166 41.7674 51.919C41.7674 46.3215 46.3214 41.7677 51.9188 41.7677C57.5162 41.7677 62.0701 46.3215 62.0701 51.919C62.0701 57.5166 57.5162 62.0704 51.9188 62.0704Z" fill="#252525"/>
<path d="M55.5531 49.4125H54.4251V46.7807C54.4251 45.3963 53.303 44.2742 51.9186 44.2742C50.5343 44.2742 49.4121 45.3963 49.4121 46.7807V51.919C49.4121 53.3034 50.5343 54.4255 51.9186 54.4255H55.5531C56.9374 54.4255 58.0596 53.3034 58.0596 51.919C58.0596 50.5347 56.9374 49.4125 55.5531 49.4125Z" fill="#252525"/>
<path d="M40.3888 31.7415C41.7731 31.7415 42.8953 30.6193 42.8953 29.235C42.8953 27.8507 41.7731 26.7285 40.3888 26.7285C39.0045 26.7285 37.8823 27.8507 37.8823 29.235C37.8823 30.6193 39.0045 31.7415 40.3888 31.7415Z" fill="#252525"/>
<path d="M29.4855 42.6449C30.8698 42.6449 31.992 41.5227 31.992 40.1383C31.992 38.754 30.8698 37.6318 29.4855 37.6318C28.1012 37.6318 26.979 38.754 26.979 40.1383C26.979 41.5227 28.1012 42.6449 29.4855 42.6449Z" fill="#252525"/>
<path d="M18.5822 31.7415C19.9665 31.7415 21.0887 30.6193 21.0887 29.235C21.0887 27.8507 19.9665 26.7285 18.5822 26.7285C17.1979 26.7285 16.0757 27.8507 16.0757 29.235C16.0757 30.6193 17.1979 31.7415 18.5822 31.7415Z" fill="#252525"/>
<path d="M18.5822 42.6449C19.9665 42.6449 21.0887 41.5227 21.0887 40.1383C21.0887 38.754 19.9665 37.6318 18.5822 37.6318C17.1979 37.6318 16.0757 38.754 16.0757 40.1383C16.0757 41.5227 17.1979 42.6449 18.5822 42.6449Z" fill="#252525"/>
<path d="M18.5822 53.5482C19.9665 53.5482 21.0887 52.426 21.0887 51.0417C21.0887 49.6574 19.9665 48.5352 18.5822 48.5352C17.1979 48.5352 16.0757 49.6574 16.0757 51.0417C16.0757 52.426 17.1979 53.5482 18.5822 53.5482Z" fill="#252525"/>
<path d="M29.4855 53.5482C30.8698 53.5482 31.992 52.426 31.992 51.0417C31.992 49.6574 30.8698 48.5352 29.4855 48.5352C28.1012 48.5352 26.979 49.6574 26.979 51.0417C26.979 52.426 28.1012 53.5482 29.4855 53.5482Z" fill="#252525"/>
<path d="M29.4855 31.7415C30.8698 31.7415 31.992 30.6193 31.992 29.235C31.992 27.8507 30.8698 26.7285 29.4855 26.7285C28.1012 26.7285 26.979 27.8507 26.979 29.235C26.979 30.6193 28.1012 31.7415 29.4855 31.7415Z" fill="#252525"/>
</svg>
