<svg width="535" height="355" viewBox="0 0 535 355" fill="none" xmlns="http://www.w3.org/2000/svg">
<g filter="url(#filter0_d)">
<path d="M119.018 71.2064C83.216 69.6758 59.7738 56.6734 27.0184 71.2064C-13.8695 89.3477 75.0186 127.207 37.019 157.206C1.95283 184.89 86.321 182.372 99.0181 225.206C105.011 245.425 88.547 260.901 99.0181 279.206C118.598 313.435 160.096 258.876 199.018 265.206C246.353 272.905 265.05 353.709 305.018 327.206C323.441 314.99 315.564 289.703 335.018 279.206C365.527 262.745 390.06 335.001 417.018 313.206C432.587 300.62 426.574 283.358 435.018 265.206C457.157 217.616 537.086 204.829 515.018 157.206C502.535 130.268 469.533 137.879 453.018 113.206C440.24 94.1169 456.952 50.3824 435.018 57.2064C345.018 85.2065 257.018 71.2063 185.018 13.2067C160.319 -6.69001 150.706 72.5612 119.018 71.2064Z" fill="white"/>
</g>
<defs>
<filter id="filter0_d" x="0" y="0" width="534.832" height="354.523" filterUnits="userSpaceOnUse" color-interpolation-filters="sRGB">
<feFlood flood-opacity="0" result="BackgroundImageFix"/>
<feColorMatrix in="SourceAlpha" type="matrix" values="0 0 0 0 0 0 0 0 0 0 0 0 0 0 0 0 0 0 127 0"/>
<feOffset dy="6"/>
<feGaussianBlur stdDeviation="8"/>
<feColorMatrix type="matrix" values="0 0 0 0 0.976471 0 0 0 0 0.282353 0 0 0 0 0.27451 0 0 0 0.25 0"/>
<feBlend mode="normal" in2="BackgroundImageFix" result="effect1_dropShadow"/>
<feBlend mode="normal" in="SourceGraphic" in2="effect1_dropShadow" result="shape"/>
</filter>
</defs>
</svg>
