<svg width="79" height="79" viewBox="0 0 79 79" fill="none" xmlns="http://www.w3.org/2000/svg">
<path fill-rule="evenodd" clip-rule="evenodd" d="M14.0059 0C6.27387 0 0.00585938 6.26802 0.00585938 14V78.6441H64.6499C72.3819 78.6441 78.6499 72.376 78.6499 64.6441V0H14.0059ZM35.0612 58.9598L38.6723 62.2599L42.2834 58.9848L42.3817 58.8952C55.1522 47.2453 63.5763 39.5604 63.5763 30.1344C63.5763 22.4343 57.5495 16.3842 49.8791 16.3842C45.5458 16.3842 41.3868 19.6858 38.6723 22.8859C35.9578 19.6858 31.7988 16.3842 27.4655 16.3842C19.7951 16.3842 13.7684 22.4343 13.7684 30.1344C13.7684 39.5768 22.2218 47.272 35.0297 58.9311L35.0612 58.9598Z" fill="white"/>
</svg>
