<svg width="74" height="73" viewBox="0 0 74 73" fill="none" xmlns="http://www.w3.org/2000/svg">
<path fill-rule="evenodd" clip-rule="evenodd" d="M14.5313 0C6.79926 0 0.53125 6.26801 0.53125 14V72.5424H59.0736C66.8056 72.5424 73.0736 66.2744 73.0736 58.5424V0H14.5313ZM32.8665 54.3854L36.1974 57.4294L39.5283 54.4085L39.619 54.3257C51.3987 43.5797 59.1692 36.4911 59.1692 27.7964C59.1692 20.6937 53.61 15.113 46.5347 15.113C42.5376 15.113 38.7014 18.1585 36.1974 21.1103C33.6935 18.1585 29.8572 15.113 25.8601 15.113C18.7848 15.113 13.2257 20.6937 13.2257 27.7964C13.2257 36.5062 21.0233 43.6044 32.8374 54.3589L32.8665 54.3854Z" fill="url(#paint0_linear)"/>
<defs>
<linearGradient id="paint0_linear" x1="0.637513" y1="36.5241" x2="73.5386" y2="36.5241" gradientUnits="userSpaceOnUse">
<stop stop-color="#F84646"/>
<stop offset="1" stop-color="#FD7A42"/>
</linearGradient>
</defs>
</svg>
