<svg width="60" height="60" viewBox="0 0 60 60" fill="none" xmlns="http://www.w3.org/2000/svg">
<path d="M59.6559 0.343253C59.4258 0.113214 59.1117 -0.0114729 58.7852 0.000831796C58.5202 0.010324 52.2115 0.263917 44.7121 2.91458C38.7027 5.03637 33.6938 8.07422 29.8244 11.9437C28.9573 12.8108 28.1135 13.7303 27.3062 14.6855C23.4803 12.4333 20.4145 13.1395 18.4763 14.1767C14.0137 16.565 11.2515 23.0497 11.2515 27.688C11.2518 28.1619 11.5374 28.5893 11.9752 28.7705C12.1202 28.8307 12.2725 28.8598 12.4235 28.8598C12.7285 28.8598 13.0281 28.7407 13.2523 28.5166C15.6058 26.1631 18.5086 26.3103 19.4569 26.435L19.8673 26.8454C19.0597 28.7673 18.409 30.6784 17.9318 32.5371C17.7596 33.2097 17.8177 33.9215 18.0738 34.5726C16.9455 35.0926 15.8569 35.856 14.9091 36.8039C11.8926 39.8205 11.2801 47.1721 11.2554 47.4836C11.2285 47.8254 11.3525 48.162 11.5949 48.4045C11.8156 48.625 12.1141 48.7477 12.4235 48.7477C12.4542 48.7477 12.485 48.7465 12.5158 48.7441C12.8273 48.7196 20.1791 48.107 23.1957 45.0905C24.1431 44.1431 24.9065 43.0546 25.4264 41.9266C26.1157 42.1976 26.8252 42.231 27.4632 42.0676C29.321 41.5905 31.2319 40.9401 33.154 40.1323L33.5644 40.5427C33.689 41.4911 33.8361 44.394 31.4828 46.7472C31.1478 47.0824 31.0474 47.5864 31.2289 48.0242C31.4101 48.4621 31.8374 48.7476 32.3114 48.7476C36.9497 48.7476 43.4343 45.9854 45.8225 41.5228C46.8598 39.5848 47.5659 36.519 45.3138 32.6929C46.2685 31.886 47.1881 31.0422 48.0555 30.1748C51.9251 26.3053 54.9628 21.2963 57.0846 15.2874C59.7354 7.78769 59.9888 1.4788 59.9983 1.21395C60.01 0.88876 59.8859 0.573409 59.6559 0.343253ZM13.8715 25.1674C14.5995 21.6444 16.7139 17.7785 19.5827 16.2431C21.4997 15.2172 23.5952 15.3178 25.8231 16.5374C23.925 19.0337 22.2749 21.7231 20.8995 24.5632C20.882 24.5524 20.6711 24.2872 20.2792 24.1988C20.1181 24.1624 17.0174 23.4955 13.8715 25.1674ZM21.5384 43.4331C19.9271 45.0445 16.1472 45.8943 13.7581 46.2413C14.1052 43.8521 12.2603 46.7017 13.8715 45.0905C14.7739 44.1882 11.4642 47.8689 12.5158 47.4836L17.9318 46.7472C17.5465 47.7988 22.4409 42.5308 21.5384 43.4331ZM26.881 39.7972C26.5418 39.884 26.149 39.7565 25.857 39.4649C24.3409 37.9489 23.7478 37.3558 23.5618 37.1698C23.2205 36.8286 22.3837 35.9917 20.5353 34.1432C20.243 33.8504 20.1155 33.4577 20.2021 33.1191C20.5775 31.6573 21.0684 30.1576 21.6653 28.6434L31.3561 38.3342C29.8417 38.9313 28.3422 39.422 26.881 39.7972ZM43.7564 40.4169C42.221 43.2855 38.3552 45.4 34.8324 46.1279C35.9556 44.0142 36.2032 41.3234 35.7928 39.6918C35.6976 39.3128 35.4503 39.1223 35.4365 39.0999C38.2763 37.7245 40.9656 36.0744 43.4621 34.1763C44.6817 36.4045 44.7822 38.5001 43.7564 40.4169ZM55.4654 12.725L47.2745 4.53411C51.7371 3.14801 55.6194 2.62899 57.5572 2.44243C57.3705 4.38059 56.8514 8.26289 55.4654 12.725Z" fill="url(#paint0_linear)"/>
<path d="M31.4844 28.5176C31.0262 28.0594 30.2844 28.0594 29.8262 28.5176C29.3691 28.9747 29.3691 29.7165 29.8262 30.1747C30.2844 30.6317 31.0262 30.6317 31.4844 30.1747C31.9414 29.7165 31.9414 28.9747 31.4844 28.5176Z" fill="white"/>
<path d="M46.398 13.6019C44.1081 11.3122 40.4013 11.3121 38.1113 13.6019C35.8275 15.8858 35.8274 19.603 38.1117 21.8887C40.3964 24.172 44.1135 24.1729 46.398 21.8885C48.6876 19.5989 48.6881 15.8919 46.398 13.6019ZM44.7407 20.2311C43.3705 21.6015 41.1399 21.6015 39.7689 20.2313C38.3984 18.86 38.3983 16.6295 39.7687 15.2592C41.1425 13.8854 43.3667 13.8852 44.7407 15.2592C46.1145 16.6328 46.1147 18.8572 44.7407 20.2311Z" fill="white"/>
<path d="M28.1685 48.4041C27.7106 47.9465 26.9686 47.9467 26.5111 48.4043L23.1971 51.7196C22.7396 52.1773 22.7397 52.9193 23.1973 53.3768C23.6551 53.8343 24.3972 53.8343 24.8547 53.3766L28.1687 50.0614C28.6262 49.6036 28.6261 48.8616 28.1685 48.4041Z" fill="url(#paint1_linear)"/>
<path d="M11.5957 31.8317C11.1382 31.374 10.3963 31.374 9.93841 31.8315L6.62317 35.1455C6.16544 35.603 6.16532 36.345 6.62282 36.8028C7.08021 37.2603 7.82212 37.2607 8.28009 36.803L11.5953 33.489C12.0531 33.0315 12.0532 32.2894 11.5957 31.8317Z" fill="url(#paint2_linear)"/>
<path d="M19.8827 50.0624C19.4253 49.6048 18.6832 49.6048 18.2254 50.0623L10.2872 57.9994C9.82943 58.4571 9.82943 59.1991 10.287 59.6567C10.7444 60.1143 11.4866 60.1146 11.9443 59.6568L19.8826 51.7197C20.3403 51.2621 20.3403 50.52 19.8827 50.0624Z" fill="url(#paint3_linear)"/>
<path d="M10.5077 50.0624C10.0502 49.6048 9.30805 49.6048 8.85043 50.0623L0.912162 57.9994C0.454429 58.4571 0.454429 59.1991 0.912045 59.6567C1.36943 60.1143 2.11157 60.1146 2.56931 59.6568L10.5076 51.7197C10.9653 51.2621 10.9653 50.52 10.5077 50.0624Z" fill="url(#paint4_linear)"/>
<path d="M9.93755 40.1176C9.48005 39.6601 8.73791 39.6601 8.28029 40.1178L0.343198 48.056C-0.114419 48.5137 -0.114419 49.2556 0.343315 49.7134C0.800931 50.171 1.54296 50.171 2.00058 49.7133L9.93767 41.775C10.3953 41.3173 10.3953 40.5754 9.93755 40.1176Z" fill="url(#paint5_linear)"/>
<path d="M36.4545 23.5451C35.9967 23.0875 35.2549 23.0875 34.7971 23.5451L33.1401 25.2022C32.6825 25.6598 32.6825 26.4018 33.1401 26.8595C33.5978 27.3172 34.3397 27.3172 34.7975 26.8595L36.4545 25.2025C36.9121 24.7449 36.9121 24.0029 36.4545 23.5451Z" fill="white"/>
<defs>
<linearGradient id="paint0_linear" x1="11.2515" y1="24.3738" x2="59.9991" y2="24.3738" gradientUnits="userSpaceOnUse">
<stop stop-color="#F84646"/>
<stop offset="1" stop-color="#FD7A42"/>
</linearGradient>
<linearGradient id="paint1_linear" x1="22.854" y1="50.8905" x2="28.5118" y2="50.8905" gradientUnits="userSpaceOnUse">
<stop stop-color="#F84646"/>
<stop offset="1" stop-color="#FD7A42"/>
</linearGradient>
<linearGradient id="paint2_linear" x1="6.27979" y1="34.3172" x2="11.9387" y2="34.3172" gradientUnits="userSpaceOnUse">
<stop stop-color="#F84646"/>
<stop offset="1" stop-color="#FD7A42"/>
</linearGradient>
<linearGradient id="paint3_linear" x1="9.94385" y1="54.8596" x2="20.2259" y2="54.8596" gradientUnits="userSpaceOnUse">
<stop stop-color="#F84646"/>
<stop offset="1" stop-color="#FD7A42"/>
</linearGradient>
<linearGradient id="paint4_linear" x1="0.568848" y1="54.8596" x2="10.8509" y2="54.8596" gradientUnits="userSpaceOnUse">
<stop stop-color="#F84646"/>
<stop offset="1" stop-color="#FD7A42"/>
</linearGradient>
<linearGradient id="paint5_linear" x1="0" y1="44.9156" x2="10.2809" y2="44.9156" gradientUnits="userSpaceOnUse">
<stop stop-color="#F84646"/>
<stop offset="1" stop-color="#FD7A42"/>
</linearGradient>
</defs>
</svg>
