<svg width="70" height="70" viewBox="0 0 70 70" fill="none" xmlns="http://www.w3.org/2000/svg">
<g clip-path="url(#clip0)">
<path d="M36.7314 33.2706C36.1969 32.736 35.3314 32.736 34.7969 33.2706C34.2637 33.8038 34.2637 34.6692 34.7969 35.2038C35.3314 35.737 36.1969 35.737 36.7314 35.2038C37.2646 34.6692 37.2646 33.8038 36.7314 33.2706Z" fill="#252525"/>
<path d="M54.1315 15.869C51.46 13.1977 47.1353 13.1976 44.4637 15.869C41.7992 18.5335 41.7991 22.8703 44.4641 25.5369C47.1296 28.2008 51.4663 28.2019 54.1315 25.5367C56.8027 22.8655 56.8032 18.5407 54.1315 15.869ZM52.198 23.6031C50.5993 25.2019 47.9971 25.2019 46.3976 23.6033C44.7987 22.0035 44.7985 19.4012 46.3973 17.8025C48.0001 16.1998 50.595 16.1995 52.198 17.8025C53.8007 19.4051 53.801 22.0002 52.198 23.6031Z" fill="#252525"/>
<path d="M69.5988 0.400462C69.3303 0.132083 68.9639 -0.013385 68.583 0.000970428C68.2739 0.0120446 60.9136 0.307904 52.1643 3.40034C45.1534 5.87576 39.3096 9.41992 34.7953 13.9344C33.7838 14.9459 32.7994 16.0186 31.8575 17.133C27.3939 14.5056 23.8171 15.3294 21.5559 16.5395C16.3495 19.3259 13.127 26.8913 13.127 32.3026C13.1274 32.8555 13.4605 33.3541 13.9713 33.5656C14.1404 33.6358 14.3182 33.6698 14.4943 33.6698C14.8502 33.6698 15.1997 33.5308 15.4613 33.2694C18.207 30.5236 21.5937 30.6954 22.7 30.8408L23.1788 31.3196C22.2365 33.5618 21.4774 35.7914 20.9207 37.9599C20.7198 38.7447 20.7876 39.5751 21.0863 40.3347C19.77 40.9413 18.5 41.832 17.3942 42.9378C13.8749 46.4572 13.1603 55.0341 13.1316 55.3975C13.1002 55.7963 13.2448 56.189 13.5277 56.4719C13.7851 56.7292 14.1333 56.8723 14.4943 56.8723C14.5301 56.8723 14.5661 56.8709 14.602 56.8681C14.9654 56.8395 23.5426 56.1249 27.0619 52.6056C28.1672 51.5002 29.0578 50.2304 29.6644 48.9143C30.4686 49.2306 31.2963 49.2695 32.0406 49.0788C34.2081 48.5222 36.4375 47.7634 38.6799 46.821L39.1587 47.2998C39.304 48.4063 39.4757 51.7929 36.7302 54.5384C36.3393 54.9294 36.2223 55.5174 36.4339 56.0282C36.6454 56.5391 37.1439 56.8722 37.6969 56.8722C43.1082 56.8722 50.6735 53.6496 53.4599 48.4432C54.67 46.1823 55.4938 42.6055 52.8664 38.1417C53.9802 37.2003 55.053 36.2159 56.065 35.2039C60.5795 30.6895 64.1235 24.8457 66.5989 17.8354C69.6915 9.08564 69.9872 1.72526 69.9983 1.41628C70.012 1.03689 69.8672 0.668977 69.5988 0.400462ZM16.1837 29.362C17.033 25.2518 19.4998 20.7416 22.8467 18.9503C25.0833 17.7535 27.5279 17.8708 30.1272 19.2936C27.9128 22.206 25.9877 25.3437 24.383 28.657C24.3626 28.6445 24.1165 28.3351 23.6593 28.232C23.4713 28.1895 19.8539 27.4114 16.1837 29.362ZM25.1284 50.672C23.2485 52.5519 18.8386 53.5434 16.0514 53.9482C16.4563 51.1608 17.4479 46.751 19.3277 44.8713C20.3804 43.8186 21.601 43.0204 22.828 42.5709L27.4288 47.1717C26.9793 48.3986 26.1812 49.6193 25.1284 50.672ZM31.3614 46.43C30.9657 46.5313 30.5074 46.3826 30.1667 46.0424C28.398 44.2737 27.7061 43.5818 27.489 43.3648C27.0908 42.9667 26.1145 41.9904 23.9581 39.8338C23.6171 39.4921 23.4683 39.034 23.5694 38.639C24.0073 36.9336 24.58 35.1838 25.2764 33.4173L36.5824 44.7232C34.8156 45.4198 33.0661 45.9924 31.3614 46.43ZM51.0494 47.153C49.2581 50.4997 44.748 52.9667 40.638 53.8158C41.9484 51.3498 42.2373 48.2107 41.7585 46.3071C41.6474 45.865 41.3589 45.6427 41.3428 45.6166C44.6559 44.0119 47.7934 42.0868 50.7061 39.8723C52.1289 42.4719 52.2461 44.9168 51.0494 47.153ZM54.1318 33.2705C52.8999 34.5023 51.5733 35.6924 50.1889 36.8076C46.8609 39.4873 43.1979 41.7571 39.2899 43.564L26.4357 30.71C28.2426 26.8018 30.5124 23.1388 33.1918 19.8112C34.3079 18.4258 35.4979 17.0991 36.7294 15.8678C40.7796 11.8174 46.0069 8.59387 52.2703 6.27348L63.7262 17.7294C61.4061 23.9926 58.1825 29.2199 54.1318 33.2705ZM64.7099 14.8459L55.1538 5.28979C60.3602 3.67268 64.8895 3.06716 67.1503 2.8495C66.9325 5.11069 66.3269 9.64003 64.7099 14.8459Z" fill="#252525"/>
<path d="M32.8633 56.4713C32.3292 55.9374 31.4635 55.9377 30.9297 56.4716L27.0633 60.3394C26.5296 60.8734 26.5297 61.7391 27.0636 62.2728C27.5977 62.8066 28.4634 62.8066 28.9972 62.2726L32.8636 58.4048C33.3973 57.8708 33.3972 57.0051 32.8633 56.4713Z" fill="#252525"/>
<path d="M13.5285 37.1369C12.9948 36.6029 12.1292 36.6029 11.5951 37.1366L7.72728 41.003C7.19326 41.5367 7.19312 42.4024 7.72687 42.9364C8.26048 43.4702 9.12605 43.4707 9.66035 42.9367L13.5281 39.0703C14.0621 38.5366 14.0623 37.6709 13.5285 37.1369Z" fill="#252525"/>
<path d="M23.1964 58.406C22.6628 57.8722 21.7969 57.8722 21.2629 58.4059L12.0016 67.6659C11.4676 68.1998 11.4676 69.0655 12.0015 69.5994C12.5351 70.1333 13.4009 70.1336 13.9349 69.5995L23.1963 60.3395C23.7303 59.8056 23.7303 58.9399 23.1964 58.406Z" fill="#252525"/>
<path d="M12.2589 58.406C11.7251 57.8722 10.8593 57.8722 10.3254 58.4059L1.06411 67.6659C0.530086 68.1998 0.530086 69.0655 1.06397 69.5994C1.59758 70.1333 2.46342 70.1336 2.99744 69.5995L12.2588 60.3395C12.7928 59.8056 12.7928 58.9399 12.2589 58.406Z" fill="#252525"/>
<path d="M11.5938 46.8039C11.0601 46.2701 10.1942 46.2701 9.66034 46.804L0.400397 56.0653C-0.133488 56.5993 -0.133488 57.4648 0.400534 57.9989C0.934419 58.5328 1.80012 58.5328 2.33401 57.9987L11.5939 48.7375C12.1278 48.2034 12.1278 47.3379 11.5938 46.8039Z" fill="#252525"/>
<path d="M42.5309 27.4693C41.9968 26.9354 41.1314 26.9354 40.5973 27.4693L38.6641 29.4025C38.1302 29.9363 38.1302 30.802 38.6641 31.3361C39.1981 31.87 40.0637 31.87 40.5977 31.3361L42.5309 29.4029C43.0647 28.869 43.0647 28.0033 42.5309 27.4693Z" fill="#252525"/>
</g>
<defs>
<clipPath id="clip0">
<path d="M0 0H70V70H0V0Z" fill="white"/>
</clipPath>
</defs>
</svg>
